#!OML:ASF E:\Steps\Project 1\Capture day 1\Session 2\Subject.ASF
:FULLY-SPECIFIED
:DEGREES
154
root 7.48252 16.2937 31.4307 -156.21 -3.72593 177.608
lowerback -27.9651 -2.65602 -7.22407
upperback -0.792791 -1.68996 -0.0676395
thorax 14.1452 -1.44677 3.1711
lowerneck -7.6552 -3.03611 -0.499127
upperneck 16.9179 -5.17778 2.38475
head 6.47888 -2.6042 0.406414
rclavicle 2.20154e-014 8.34896e-015
rhumerus -38.4255 -23.1144 -75.2337
rradius 28.7075
rwrist 0.232447
rhand -9.44704 -51.5901
rfingers 7.12502
rthumb 16.5161 -80.9072
lclavicle 2.20154e-014 8.34896e-015
lhumerus -29.0915 9.30553 80.0251
lradius 18.0245
lwrist -8.52313
lhand -19.7208 -13.4858
lfingers 7.12502
lthumb 6.60939 16.3911
rfemur -22.2119 5.9448 19.9205
rtibia 9.95483
rfoot -20.9327 -10.1702
rtoes -31.9682
lfemur -25.3039 -10.3322 -19.844
ltibia 13.4482
lfoot -11.2195 1.51047
ltoes -46.0491
155
root 7.49343 16.2932 31.4256 -156.21 -3.70241 177.594
lowerback -27.8869 -2.67373 -7.1784
upperback -0.792887 -1.73477 -0.0416984
thorax 14.1141 -1.46261 3.16002
lowerneck -7.41933 -3.12802 -0.636391
upperneck 16.5155 -5.26715 2.51338
head 6.31813 -2.64419 0.472458
rclavicle -1.44119e-015 -1.19271e-014
rhumerus -38.3861 -22.9132 -75.2264
rradius 28.5888
rwrist 0.0907495
rhand -9.02329 -51.5951
rfingers 7.12502
rthumb 16.924 -80.8778
lclavicle -1.44119e-015 -1.19271e-014
lhumerus -29.005 9.43503 80.0693
lradius 18.1265
lwrist -8.48852
lhand -19.7644 -13.6567
lfingers 7.12502
lthumb 6.5673 16.2214
rfemur -22.2453 5.78088 19.9806
rtibia 10.0245
rfoot -20.9181 -10.0497
rtoes -32.23
lfemur -25.3133 -10.358 -19.796
ltibia 13.4807
lfoot -11.2925 1.567
ltoes -45.8207
156
root 7.50841 16.2916 31.4208 -156.168 -3.61425 177.575
lowerback -27.8905 -2.74678 -7.20184
upperback -0.769947 -1.82515 0.00490472
thorax 14.1549 -1.50632 3.18846
lowerneck -6.73912 -3.24231 -0.80263
upperneck 15.4924 -5.36177 2.83469
head 5.89201 -2.67668 0.619901
rclavicle 2.56432e-014 -1.03368e-014
rhumerus -38.1823 -22.8797 -75.2055
rradius 28.3626
rwrist 0.346775
rhand -10.5026 -51.4323
rfingers 7.12502
rthumb 15.4996 -80.831
lclavicle 2.56432e-014 -1.03368e-014
lhumerus -29.0065 9.61307 80.0771
lradius 18.4099
lwrist -8.3537
lhand -19.9199 -13.5032
lfingers 7.12502
lthumb 6.41713 16.3796
rfemur -22.3456 5.77466 20.0202
rtibia 10.1187
rfoot -20.9027 -10.0184
rtoes -32.5913
lfemur -25.3691 -10.2698 -19.755
ltibia 13.5256
lfoot -11.2667 1.5465
ltoes -44.8865
157
root 7.52646 16.2898 31.4153 -156.093 -3.5184 177.629
lowerback -27.9438 -2.7844 -7.20378
upperback -0.775736 -1.87697 0.0393296
thorax 14.1804 -1.53219 3.20514
lowerneck -6.91321 -2.93315 -0.979431
upperneck 16.1285 -4.98826 2.83421
head 6.119 -2.51429 0.665066
rclavicle 2.03754e-015 -7.15625e-015
rhumerus -38.1182 -22.8949 -75.1697
rradius 28.2234
rwrist 0.531232
rhand -9.09918 -52.3267
rfingers 7.12502
rthumb 16.851 -81.6155
lclavicle 2.03754e-015 -7.15625e-015
lhumerus -29.0904 9.38493 80.1752
lradius 18.8407
lwrist -7.94844
lhand -19.9188 -13.3577
lfingers 7.12502
lthumb 6.41816 16.525
rfemur -22.4331 6.13766 20.0851
rtibia 10.1111
rfoot -20.9016 -10.2074
rtoes -32.4507
lfemur -25.455 -10.1836 -19.605
ltibia 13.542
lfoot -11.2979 1.616
ltoes -44.411
158
root 7.54215 16.292 31.4126 -156.016 -3.53878 177.715
lowerback -27.9703 -2.75801 -7.12438
upperback -0.771866 -1.86397 0.0288666
thorax 14.1941 -1.52126 3.15503
lowerneck -6.9077 -2.94001 -0.768943
upperneck 16.2983 -5.00831 2.60018
head 6.16106 -2.5329 0.553397
rclavicle -1.99282e-014 -1.66979e-014
rhumerus -38.1527 -23.1902 -75.0339
rradius 28.06
rwrist 0.766899
rhand -8.64644 -52.0223
rfingers 7.12502
rthumb 17.2868 -81.2735
lclavicle -1.99282e-014 -1.66979e-014
lhumerus -29.0268 8.85616 80.3211
lradius 19.1708
lwrist -7.43147
lhand -19.7951 -13.4686
lfingers 7.12502
lthumb 6.53762 16.4105
rfemur -22.5143 6.37405 20.2175
rtibia 10.0993
rfoot -20.9239 -10.3114
rtoes -32.0463
lfemur -25.6021 -10.1863 -19.4021
ltibia 13.6131
lfoot -11.3482 1.72585
ltoes -45.1846
159
root 7.55458 16.2958 31.4094 -156.011 -3.60944 177.694
lowerback -27.9119 -2.72823 -7.09334
upperback -0.748921 -1.82631 -0.0312427
thorax 14.1861 -1.49925 3.08924
lowerneck -6.737 -3.0368 -0.526119
upperneck 16.1932 -5.14089 2.43288
head 6.09035 -2.59835 0.4556
rclavicle -6.90777e-015 3.18055e-015
rhumerus -38.2024 -23.6042 -74.8517
rradius 27.8419
rwrist 0.985993
rhand -8.68683 -51.6985
rfingers 7.12502
rthumb 17.2479 -80.9531
lclavicle -6.90777e-015 3.18055e-015
lhumerus -28.8989 8.51802 80.352
lradius 19.3313
lwrist -7.22708
lhand -19.6733 -13.6142
lfingers 7.12502
lthumb 6.65521 16.2612
rfemur -22.5041 6.02996 20.32
rtibia 10.1085
rfoot -20.956 -9.95594
rtoes -31.8744
lfemur -25.6437 -10.1964 -19.3616
ltibia 13.6796
lfoot -11.2997 1.65191
ltoes -45.1567
160
root 7.56688 16.2963 31.4016 -156.051 -3.54536 177.498
lowerback -27.7173 -2.76972 -7.36017
upperback -0.794883 -1.81678 -0.0266058
thorax 14.0447 -1.50884 3.24844
lowerneck -6.64887 -2.9857 -0.518494
upperneck 16.2901 -5.08021 2.37605
head 6.1029 -2.578 0.441227
rclavicle 3.08116e-015 -1.98785e-015
rhumerus -38.3946 -23.631 -74.5973
rradius 27.8121
rwrist 1.09989
rhand -9.52855 -51.902
rfingers 7.12502
rthumb 16.4376 -81.2256
lclavicle 3.08116e-015 -1.98785e-015
lhumerus -29.0028 8.27098 80.5318
lradius 19.6034
lwrist -7.0409
lhand -19.5501 -13.6308
lfingers 7.12502
lthumb 6.77417 16.2408
rfemur -22.386 5.37364 20.2519
rtibia 10.0332
rfoot -20.9508 -9.31635
rtoes -31.9461
lfemur -25.5142 -10.2006 -19.5809
ltibia 13.6582
lfoot -11.3139 1.52987
ltoes -43.8278
161
root 7.57932 16.2938 31.3908 -156.01 -3.44299 177.371
lowerback -27.8577 -2.81787 -7.40054
upperback -0.711127 -1.84055 -0.071494
thorax 14.2092 -1.52502 3.20712
lowerneck -6.91174 -2.81469 -0.703469
upperneck 16.6248 -4.88163 2.54704
head 6.25989 -2.48032 0.5311
rclavicle 8.94531e-016 -1.35174e-014
rhumerus -38.3786 -23.5031 -74.6352
rradius 27.875
rwrist 1.14111
rhand -9.99001 -51.7134
rfingers 7.12502
rthumb 15.9933 -81.0732
lclavicle 8.94531e-016 -1.35174e-014
lhumerus -28.8912 8.16715 80.6084
lradius 19.8721
lwrist -6.74922
lhand -19.6341 -13.3229
lfingers 7.12502
lthumb 6.69303 16.5513
rfemur -22.3868 5.129 20.1532
rtibia 10.0052
rfoot -21.0439 -8.84929
rtoes -30.765
lfemur -25.4798 -10.2216 -19.7081
ltibia 13.6486
lfoot -11.4103 1.62894
ltoes -43.9572
162
root 7.59045 16.2937 31.381 -155.938 -3.42415 177.354
lowerback -27.9673 -2.8561 -7.27517
upperback -0.699989 -1.922 -0.0787884
thorax 14.28 -1.55568 3.09607
lowerneck -7.0397 -2.65224 -1.0022
upperneck 17.0078 -4.70279 2.76025
head 6.41226 -2.40257 0.654394
rclavicle -7.00716e-015 1.66979e-014
rhumerus -38.4771 -23.2564 -74.6965
rradius 27.9813
rwrist 1.07276
rhand -9.7736 -51.4251
rfingers 7.12502
rthumb 16.2017 -80.7681
lclavicle -7.00716e-015 1.66979e-014
lhumerus -28.8082 8.4412 80.5347
lradius 19.9648
lwrist -6.70396
lhand -19.8843 -12.9713
lfingers 7.12502
lthumb 6.45155 16.9104
rfemur -22.5503 5.4779 20.0473
rtibia 10.2296
rfoot -21.3316 -8.80134
rtoes -28.4746
lfemur -25.574 -10.4474 -19.6241
ltibia 13.7627
lfoot -11.4865 1.92335
ltoes -44.718
